# xmcd
#
# Track frame offsets:
#	150
#	7601
#	28417
#	54907
#	66708
#	84387
#	98000
#	111978
#	125739
#	137571
#	149102
#	167739
#
# Disc length: 2392 seconds
#
# Revision: 0
# Processed by: cddbd v1.5.2PL0 Copyright (c) Steve Scherf et al.
# Submitted via: EZCDAudioConverter 2.1.7.1
#
DISCID=aa09560c
DTITLE=Jack White - Acoustic Recordings 1998-2016 2/2
DYEAR=1900
DGENRE=
TTITLE0=Love Is The Truth [Acoustic Mix]
TTITLE1=Top Yourself [Bluegrass Version]
TTITLE2=Carolina Drama [Acoustic Mix]
TTITLE3=Love Interruption
TTITLE4=On And On And On
TTITLE5=Machine Gun Silhouette [Acoustic Mix]
TTITLE6=Blunderbuss
TTITLE7=Hip (Eponymous) Poor Boy [Alternate Mix]
TTITLE8=I Guess I Should Go To Sleep [Alternate Mix]
TTITLE9=Just One Drink [Acoustic Mix]
TTITLE10=Entitlement
TTITLE11=Want And Able
EXTD=
EXTT0=
EXTT1=
EXTT2=
EXTT3=
EXTT4=
EXTT5=
EXTT6=
EXTT7=
EXTT8=
EXTT9=
EXTT10=
EXTT11=
PLAYORDER=
